solid OpenSCAD_Model
  facet normal 0 0 -1
    outer loop
      vertex -50 0 0
      vertex -48.9074 10.3956 0
      vertex -48.9074 -10.3956 0
    endloop
  endfacet
  facet normal 0 0 -1
    outer loop
      vertex -48.9074 -10.3956 0
      vertex -48.9074 10.3956 0
      vertex -45.6773 20.3368 0
    endloop
  endfacet
  facet normal 0 0 -1
    outer loop
      vertex -48.9074 -10.3956 0
      vertex -45.6773 20.3368 0
      vertex -40.4508 29.3893 0
    endloop
  endfacet
  facet normal 0 0 -1
    outer loop
      vertex -48.9074 -10.3956 0
      vertex -40.4508 29.3893 0
      vertex -33.4565 37.1572 0
    endloop
  endfacet
  facet normal 0 0 -1
    outer loop
      vertex -48.9074 -10.3956 0
      vertex -33.4565 37.1572 0
      vertex -25 43.3013 0
    endloop
  endfacet
  facet normal 0 0 -1
    outer loop
      vertex -48.9074 -10.3956 0
      vertex -25 43.3013 0
      vertex -15.4508 47.5528 0
    endloop
  endfacet
  facet normal 0 0 -1
    outer loop
      vertex -48.9074 -10.3956 0
      vertex -15.4508 47.5528 0
      vertex -5.22642 49.7261 0
    endloop
  endfacet
  facet normal 0 0 -1
    outer loop
      vertex -48.9074 -10.3956 0
      vertex -5.22642 49.7261 0
      vertex 5.22642 49.7261 0
    endloop
  endfacet
  facet normal 0 0 -1
    outer loop
      vertex -48.9074 -10.3956 0
      vertex 5.22642 49.7261 0
      vertex 15.4508 47.5528 0
    endloop
  endfacet
  facet normal 0 0 -1
    outer loop
      vertex -48.9074 -10.3956 0
      vertex 15.4508 47.5528 0
      vertex 25 43.3013 0
    endloop
  endfacet
  facet normal 0 0 -1
    outer loop
      vertex -48.9074 -10.3956 0
      vertex 25 43.3013 0
      vertex 33.4565 37.1572 0
    endloop
  endfacet
  facet normal 0 0 -1
    outer loop
      vertex 1.30661 12.4315 0
      vertex 33.4565 37.1572 0
      vertex 40.4508 29.3893 0
    endloop
  endfacet
  facet normal 0 0 -1
    outer loop
      vertex 8.36413 9.28931 0
      vertex 40.4508 29.3893 0
      vertex 45.6773 20.3368 0
    endloop
  endfacet
  facet normal 0 0 -1
    outer loop
      vertex 11.4193 5.08421 0
      vertex 45.6773 20.3368 0
      vertex 48.9074 10.3956 0
    endloop
  endfacet
  facet normal 0 0 -1
    outer loop
      vertex 12.2268 -2.5989 0
      vertex 48.9074 10.3956 0
      vertex 50 0 0
    endloop
  endfacet
  facet normal 0 0 -1
    outer loop
      vertex 10.1127 -7.34732 0
      vertex 50 0 0
      vertex 48.9074 -10.3956 0
    endloop
  endfacet
  facet normal 0 0 -1
    outer loop
      vertex 3.86271 -11.8882 0
      vertex 48.9074 -10.3956 0
      vertex 45.6773 -20.3368 0
    endloop
  endfacet
  facet normal 0 0 -1
    outer loop
      vertex -48.9074 -10.3956 0
      vertex 45.6773 -20.3368 0
      vertex 40.4508 -29.3893 0
    endloop
  endfacet
  facet normal 0 0 -1
    outer loop
      vertex -48.9074 -10.3956 0
      vertex 40.4508 -29.3893 0
      vertex 33.4565 -37.1572 0
    endloop
  endfacet
  facet normal 0 0 -1
    outer loop
      vertex -48.9074 -10.3956 0
      vertex 33.4565 -37.1572 0
      vertex 25 -43.3013 0
    endloop
  endfacet
  facet normal 0 0 -1
    outer loop
      vertex -48.9074 -10.3956 0
      vertex 25 -43.3013 0
      vertex 15.4508 -47.5528 0
    endloop
  endfacet
  facet normal 0 0 -1
    outer loop
      vertex -48.9074 -10.3956 0
      vertex 15.4508 -47.5528 0
      vertex 5.22642 -49.7261 0
    endloop
  endfacet
  facet normal 0 0 -1
    outer loop
      vertex -48.9074 -10.3956 0
      vertex 5.22642 -49.7261 0
      vertex -5.22642 -49.7261 0
    endloop
  endfacet
  facet normal 0 0 -1
    outer loop
      vertex -48.9074 -10.3956 0
      vertex -5.22642 -49.7261 0
      vertex -15.4508 -47.5528 0
    endloop
  endfacet
  facet normal 0 0 -1
    outer loop
      vertex -48.9074 -10.3956 0
      vertex -15.4508 -47.5528 0
      vertex -25 -43.3013 0
    endloop
  endfacet
  facet normal 0 0 -1
    outer loop
      vertex -48.9074 -10.3956 0
      vertex -25 -43.3013 0
      vertex -33.4565 -37.1572 0
    endloop
  endfacet
  facet normal 0 0 -1
    outer loop
      vertex -48.9074 -10.3956 0
      vertex -33.4565 -37.1572 0
      vertex -40.4508 -29.3893 0
    endloop
  endfacet
  facet normal 0 0 -1
    outer loop
      vertex -48.9074 -10.3956 0
      vertex -40.4508 -29.3893 0
      vertex -45.6773 -20.3368 0
    endloop
  endfacet
  facet normal 0 0 -1
    outer loop
      vertex -11.4193 -5.08421 0
      vertex -48.9074 -10.3956 0
      vertex -12.2268 -2.5989 0
    endloop
  endfacet
  facet normal 0 0 -1
    outer loop
      vertex -48.9074 -10.3956 0
      vertex -12.5 0 0
      vertex -12.2268 -2.5989 0
    endloop
  endfacet
  facet normal 0 0 -1
    outer loop
      vertex 11.4193 5.08421 0
      vertex 48.9074 10.3956 0
      vertex 12.2268 2.5989 0
    endloop
  endfacet
  facet normal 0 0 -1
    outer loop
      vertex -6.25 -10.8253 0
      vertex -48.9074 -10.3956 0
      vertex -8.36413 -9.28931 0
    endloop
  endfacet
  facet normal 0 0 -1
    outer loop
      vertex -48.9074 -10.3956 0
      vertex -10.1127 -7.34732 0
      vertex -8.36413 -9.28931 0
    endloop
  endfacet
  facet normal 0 0 -1
    outer loop
      vertex 1.30661 -12.4315 0
      vertex 45.6773 -20.3368 0
      vertex -1.30661 -12.4315 0
    endloop
  endfacet
  facet normal 0 0 -1
    outer loop
      vertex -48.9074 -10.3956 0
      vertex -6.25 -10.8253 0
      vertex -3.86271 -11.8882 0
    endloop
  endfacet
  facet normal 0 0 -1
    outer loop
      vertex -48.9074 -10.3956 0
      vertex -3.86271 -11.8882 0
      vertex -1.30661 -12.4315 0
    endloop
  endfacet
  facet normal 0 0 -1
    outer loop
      vertex -48.9074 -10.3956 0
      vertex -1.30661 -12.4315 0
      vertex 45.6773 -20.3368 0
    endloop
  endfacet
  facet normal 0 0 -1
    outer loop
      vertex 3.86271 -11.8882 0
      vertex 45.6773 -20.3368 0
      vertex 1.30661 -12.4315 0
    endloop
  endfacet
  facet normal 0 0 -1
    outer loop
      vertex 6.25 -10.8253 0
      vertex 48.9074 -10.3956 0
      vertex 3.86271 -11.8882 0
    endloop
  endfacet
  facet normal 0 0 -1
    outer loop
      vertex 8.36413 -9.28931 0
      vertex 48.9074 -10.3956 0
      vertex 6.25 -10.8253 0
    endloop
  endfacet
  facet normal 0 0 -1
    outer loop
      vertex 10.1127 -7.34732 0
      vertex 48.9074 -10.3956 0
      vertex 8.36413 -9.28931 0
    endloop
  endfacet
  facet normal 0 0 -1
    outer loop
      vertex 11.4193 -5.08421 0
      vertex 50 0 0
      vertex 10.1127 -7.34732 0
    endloop
  endfacet
  facet normal 0 0 -1
    outer loop
      vertex 12.2268 -2.5989 0
      vertex 50 0 0
      vertex 11.4193 -5.08421 0
    endloop
  endfacet
  facet normal 0 0 -1
    outer loop
      vertex 12.5 0 0
      vertex 48.9074 10.3956 0
      vertex 12.2268 -2.5989 0
    endloop
  endfacet
  facet normal 0 0 -1
    outer loop
      vertex 12.2268 2.5989 0
      vertex 48.9074 10.3956 0
      vertex 12.5 0 0
    endloop
  endfacet
  facet normal 0 0 -1
    outer loop
      vertex -10.1127 -7.34732 0
      vertex -48.9074 -10.3956 0
      vertex -11.4193 -5.08421 0
    endloop
  endfacet
  facet normal 0 0 -1
    outer loop
      vertex 10.1127 7.34732 0
      vertex 45.6773 20.3368 0
      vertex 11.4193 5.08421 0
    endloop
  endfacet
  facet normal 0 0 -1
    outer loop
      vertex 8.36413 9.28931 0
      vertex 45.6773 20.3368 0
      vertex 10.1127 7.34732 0
    endloop
  endfacet
  facet normal 0 0 -1
    outer loop
      vertex 6.25 10.8253 0
      vertex 40.4508 29.3893 0
      vertex 8.36413 9.28931 0
    endloop
  endfacet
  facet normal 0 0 -1
    outer loop
      vertex 3.86271 11.8882 0
      vertex 40.4508 29.3893 0
      vertex 6.25 10.8253 0
    endloop
  endfacet
  facet normal 0 0 -1
    outer loop
      vertex -1.30661 12.4315 0
      vertex 33.4565 37.1572 0
      vertex 1.30661 12.4315 0
    endloop
  endfacet
  facet normal 0 0 -1
    outer loop
      vertex -8.36413 9.28931 0
      vertex -48.9074 -10.3956 0
      vertex -6.25 10.8253 0
    endloop
  endfacet
  facet normal 0 0 -1
    outer loop
      vertex -3.86271 11.8882 0
      vertex 33.4565 37.1572 0
      vertex -1.30661 12.4315 0
    endloop
  endfacet
  facet normal 0 0 -1
    outer loop
      vertex -6.25 10.8253 0
      vertex 33.4565 37.1572 0
      vertex -3.86271 11.8882 0
    endloop
  endfacet
  facet normal 0 0 -1
    outer loop
      vertex -48.9074 -10.3956 0
      vertex 33.4565 37.1572 0
      vertex -6.25 10.8253 0
    endloop
  endfacet
  facet normal 0 0 -1
    outer loop
      vertex -10.1127 7.34732 0
      vertex -48.9074 -10.3956 0
      vertex -8.36413 9.28931 0
    endloop
  endfacet
  facet normal 0 0 -1
    outer loop
      vertex -11.4193 5.08421 0
      vertex -48.9074 -10.3956 0
      vertex -10.1127 7.34732 0
    endloop
  endfacet
  facet normal 0 0 -1
    outer loop
      vertex -12.2268 2.5989 0
      vertex -48.9074 -10.3956 0
      vertex -11.4193 5.08421 0
    endloop
  endfacet
  facet normal 0 0 -1
    outer loop
      vertex -12.5 0 0
      vertex -48.9074 -10.3956 0
      vertex -12.2268 2.5989 0
    endloop
  endfacet
  facet normal 0 0 -1
    outer loop
      vertex 1.30661 12.4315 0
      vertex 40.4508 29.3893 0
      vertex 3.86271 11.8882 0
    endloop
  endfacet
  facet normal -0.994522 0.104528 0
    outer loop
      vertex -50 0 0
      vertex -50 0 10
      vertex -48.9074 10.3956 0
    endloop
  endfacet
  facet normal -0.994522 0.104528 0
    outer loop
      vertex -48.9074 10.3956 0
      vertex -50 0 10
      vertex -48.9074 10.3956 10
    endloop
  endfacet
  facet normal -0.994522 -0.104528 0
    outer loop
      vertex -50 0 0
      vertex -48.9074 -10.3956 0
      vertex -50 0 10
    endloop
  endfacet
  facet normal -0.994522 -0.104528 0
    outer loop
      vertex -50 0 10
      vertex -48.9074 -10.3956 0
      vertex -48.9074 -10.3956 10
    endloop
  endfacet
  facet normal -0.951057 -0.309017 0
    outer loop
      vertex -48.9074 -10.3956 0
      vertex -45.6773 -20.3368 0
      vertex -48.9074 -10.3956 10
    endloop
  endfacet
  facet normal -0.951057 -0.309017 0
    outer loop
      vertex -48.9074 -10.3956 10
      vertex -45.6773 -20.3368 0
      vertex -45.6773 -20.3368 10
    endloop
  endfacet
  facet normal -0.866025 -0.5 0
    outer loop
      vertex -45.6773 -20.3368 0
      vertex -40.4508 -29.3893 0
      vertex -45.6773 -20.3368 10
    endloop
  endfacet
  facet normal -0.866025 -0.5 0
    outer loop
      vertex -45.6773 -20.3368 10
      vertex -40.4508 -29.3893 0
      vertex -40.4508 -29.3893 10
    endloop
  endfacet
  facet normal -0.743145 -0.669131 0
    outer loop
      vertex -40.4508 -29.3893 0
      vertex -33.4565 -37.1572 0
      vertex -40.4508 -29.3893 10
    endloop
  endfacet
  facet normal -0.743145 -0.669131 0
    outer loop
      vertex -40.4508 -29.3893 10
      vertex -33.4565 -37.1572 0
      vertex -33.4565 -37.1572 10
    endloop
  endfacet
  facet normal -0.587785 -0.809017 0
    outer loop
      vertex -33.4565 -37.1572 10
      vertex -33.4565 -37.1572 0
      vertex -25 -43.3013 0
    endloop
  endfacet
  facet normal -0.587785 -0.809017 0
    outer loop
      vertex -25 -43.3013 10
      vertex -33.4565 -37.1572 10
      vertex -25 -43.3013 0
    endloop
  endfacet
  facet normal -0.406737 -0.913545 0
    outer loop
      vertex -25 -43.3013 10
      vertex -25 -43.3013 0
      vertex -15.4508 -47.5528 0
    endloop
  endfacet
  facet normal -0.406737 -0.913545 0
    outer loop
      vertex -15.4508 -47.5528 10
      vertex -25 -43.3013 10
      vertex -15.4508 -47.5528 0
    endloop
  endfacet
  facet normal -0.207912 -0.978148 0
    outer loop
      vertex -15.4508 -47.5528 10
      vertex -15.4508 -47.5528 0
      vertex -5.22642 -49.7261 0
    endloop
  endfacet
  facet normal -0.207912 -0.978148 0
    outer loop
      vertex -5.22642 -49.7261 10
      vertex -15.4508 -47.5528 10
      vertex -5.22642 -49.7261 0
    endloop
  endfacet
  facet normal 0 -1 0
    outer loop
      vertex -5.22642 -49.7261 10
      vertex -5.22642 -49.7261 0
      vertex 5.22642 -49.7261 0
    endloop
  endfacet
  facet normal 0 -1 0
    outer loop
      vertex 5.22642 -49.7261 10
      vertex -5.22642 -49.7261 10
      vertex 5.22642 -49.7261 0
    endloop
  endfacet
  facet normal 0.207912 -0.978148 0
    outer loop
      vertex 5.22642 -49.7261 10
      vertex 5.22642 -49.7261 0
      vertex 15.4508 -47.5528 0
    endloop
  endfacet
  facet normal 0.207912 -0.978148 0
    outer loop
      vertex 15.4508 -47.5528 10
      vertex 5.22642 -49.7261 10
      vertex 15.4508 -47.5528 0
    endloop
  endfacet
  facet normal 0.406737 -0.913545 0
    outer loop
      vertex 15.4508 -47.5528 10
      vertex 15.4508 -47.5528 0
      vertex 25 -43.3013 0
    endloop
  endfacet
  facet normal 0.406737 -0.913545 0
    outer loop
      vertex 25 -43.3013 10
      vertex 15.4508 -47.5528 10
      vertex 25 -43.3013 0
    endloop
  endfacet
  facet normal 0.587785 -0.809017 0
    outer loop
      vertex 25 -43.3013 10
      vertex 25 -43.3013 0
      vertex 33.4565 -37.1572 0
    endloop
  endfacet
  facet normal 0.587785 -0.809017 0
    outer loop
      vertex 33.4565 -37.1572 10
      vertex 25 -43.3013 10
      vertex 33.4565 -37.1572 0
    endloop
  endfacet
  facet normal 0.743145 -0.669131 0
    outer loop
      vertex 33.4565 -37.1572 10
      vertex 33.4565 -37.1572 0
      vertex 40.4508 -29.3893 0
    endloop
  endfacet
  facet normal 0.743145 -0.669131 0
    outer loop
      vertex 40.4508 -29.3893 10
      vertex 33.4565 -37.1572 10
      vertex 40.4508 -29.3893 0
    endloop
  endfacet
  facet normal 0.866025 -0.5 0
    outer loop
      vertex 40.4508 -29.3893 10
      vertex 40.4508 -29.3893 0
      vertex 45.6773 -20.3368 0
    endloop
  endfacet
  facet normal 0.866025 -0.5 0
    outer loop
      vertex 45.6773 -20.3368 10
      vertex 40.4508 -29.3893 10
      vertex 45.6773 -20.3368 0
    endloop
  endfacet
  facet normal 0.951057 -0.309017 0
    outer loop
      vertex 45.6773 -20.3368 10
      vertex 45.6773 -20.3368 0
      vertex 48.9074 -10.3956 0
    endloop
  endfacet
  facet normal 0.951057 -0.309017 0
    outer loop
      vertex 48.9074 -10.3956 10
      vertex 45.6773 -20.3368 10
      vertex 48.9074 -10.3956 0
    endloop
  endfacet
  facet normal 0.994522 -0.104528 0
    outer loop
      vertex 48.9074 -10.3956 10
      vertex 48.9074 -10.3956 0
      vertex 50 0 0
    endloop
  endfacet
  facet normal 0.994522 -0.104528 0
    outer loop
      vertex 50 0 10
      vertex 48.9074 -10.3956 10
      vertex 50 0 0
    endloop
  endfacet
  facet normal 0.994522 0.104528 0
    outer loop
      vertex 50 0 0
      vertex 48.9074 10.3956 0
      vertex 48.9074 10.3956 10
    endloop
  endfacet
  facet normal 0.994522 0.104528 0
    outer loop
      vertex 50 0 10
      vertex 50 0 0
      vertex 48.9074 10.3956 10
    endloop
  endfacet
  facet normal 0.951057 0.309017 0
    outer loop
      vertex 48.9074 10.3956 0
      vertex 45.6773 20.3368 0
      vertex 45.6773 20.3368 10
    endloop
  endfacet
  facet normal 0.951057 0.309017 0
    outer loop
      vertex 48.9074 10.3956 10
      vertex 48.9074 10.3956 0
      vertex 45.6773 20.3368 10
    endloop
  endfacet
  facet normal 0.866025 0.5 0
    outer loop
      vertex 45.6773 20.3368 0
      vertex 40.4508 29.3893 0
      vertex 40.4508 29.3893 10
    endloop
  endfacet
  facet normal 0.866025 0.5 0
    outer loop
      vertex 45.6773 20.3368 10
      vertex 45.6773 20.3368 0
      vertex 40.4508 29.3893 10
    endloop
  endfacet
  facet normal 0.743145 0.669131 0
    outer loop
      vertex 40.4508 29.3893 0
      vertex 33.4565 37.1572 0
      vertex 33.4565 37.1572 10
    endloop
  endfacet
  facet normal 0.743145 0.669131 0
    outer loop
      vertex 40.4508 29.3893 10
      vertex 40.4508 29.3893 0
      vertex 33.4565 37.1572 10
    endloop
  endfacet
  facet normal 0.587785 0.809017 0
    outer loop
      vertex 25 43.3013 0
      vertex 25 43.3013 10
      vertex 33.4565 37.1572 0
    endloop
  endfacet
  facet normal 0.587785 0.809017 0
    outer loop
      vertex 33.4565 37.1572 0
      vertex 25 43.3013 10
      vertex 33.4565 37.1572 10
    endloop
  endfacet
  facet normal 0.406737 0.913545 0
    outer loop
      vertex 15.4508 47.5528 0
      vertex 15.4508 47.5528 10
      vertex 25 43.3013 0
    endloop
  endfacet
  facet normal 0.406737 0.913545 0
    outer loop
      vertex 25 43.3013 0
      vertex 15.4508 47.5528 10
      vertex 25 43.3013 10
    endloop
  endfacet
  facet normal 0.207912 0.978148 0
    outer loop
      vertex 5.22642 49.7261 0
      vertex 5.22642 49.7261 10
      vertex 15.4508 47.5528 0
    endloop
  endfacet
  facet normal 0.207912 0.978148 0
    outer loop
      vertex 15.4508 47.5528 0
      vertex 5.22642 49.7261 10
      vertex 15.4508 47.5528 10
    endloop
  endfacet
  facet normal 0 1 0
    outer loop
      vertex -5.22642 49.7261 0
      vertex -5.22642 49.7261 10
      vertex 5.22642 49.7261 0
    endloop
  endfacet
  facet normal 0 1 0
    outer loop
      vertex 5.22642 49.7261 0
      vertex -5.22642 49.7261 10
      vertex 5.22642 49.7261 10
    endloop
  endfacet
  facet normal -0.207912 0.978148 0
    outer loop
      vertex -15.4508 47.5528 0
      vertex -15.4508 47.5528 10
      vertex -5.22642 49.7261 0
    endloop
  endfacet
  facet normal -0.207912 0.978148 0
    outer loop
      vertex -5.22642 49.7261 0
      vertex -15.4508 47.5528 10
      vertex -5.22642 49.7261 10
    endloop
  endfacet
  facet normal -0.406737 0.913545 0
    outer loop
      vertex -25 43.3013 0
      vertex -25 43.3013 10
      vertex -15.4508 47.5528 0
    endloop
  endfacet
  facet normal -0.406737 0.913545 0
    outer loop
      vertex -15.4508 47.5528 0
      vertex -25 43.3013 10
      vertex -15.4508 47.5528 10
    endloop
  endfacet
  facet normal -0.587785 0.809017 0
    outer loop
      vertex -33.4565 37.1572 0
      vertex -33.4565 37.1572 10
      vertex -25 43.3013 0
    endloop
  endfacet
  facet normal -0.587785 0.809017 0
    outer loop
      vertex -25 43.3013 0
      vertex -33.4565 37.1572 10
      vertex -25 43.3013 10
    endloop
  endfacet
  facet normal -0.743145 0.669131 0
    outer loop
      vertex -40.4508 29.3893 0
      vertex -40.4508 29.3893 10
      vertex -33.4565 37.1572 0
    endloop
  endfacet
  facet normal -0.743145 0.669131 0
    outer loop
      vertex -33.4565 37.1572 0
      vertex -40.4508 29.3893 10
      vertex -33.4565 37.1572 10
    endloop
  endfacet
  facet normal -0.866025 0.5 0
    outer loop
      vertex -45.6773 20.3368 0
      vertex -45.6773 20.3368 10
      vertex -40.4508 29.3893 0
    endloop
  endfacet
  facet normal -0.866025 0.5 0
    outer loop
      vertex -40.4508 29.3893 0
      vertex -45.6773 20.3368 10
      vertex -40.4508 29.3893 10
    endloop
  endfacet
  facet normal -0.951057 0.309017 0
    outer loop
      vertex -48.9074 10.3956 0
      vertex -48.9074 10.3956 10
      vertex -45.6773 20.3368 0
    endloop
  endfacet
  facet normal -0.951057 0.309017 0
    outer loop
      vertex -45.6773 20.3368 0
      vertex -48.9074 10.3956 10
      vertex -45.6773 20.3368 10
    endloop
  endfacet
  facet normal 0.994522 0.104528 0
    outer loop
      vertex -12.5 0 10
      vertex -12.2268 -2.5989 10
      vertex -12.2268 -2.5989 0
    endloop
  endfacet
  facet normal 0.994522 0.104528 0
    outer loop
      vertex -12.5 0 0
      vertex -12.5 0 10
      vertex -12.2268 -2.5989 0
    endloop
  endfacet
  facet normal 0.994522 -0.104528 0
    outer loop
      vertex -12.2268 2.5989 0
      vertex -12.2268 2.5989 10
      vertex -12.5 0 10
    endloop
  endfacet
  facet normal 0.994522 -0.104528 0
    outer loop
      vertex -12.5 0 0
      vertex -12.2268 2.5989 0
      vertex -12.5 0 10
    endloop
  endfacet
  facet normal 0.951056 -0.309017 0
    outer loop
      vertex -11.4193 5.08421 0
      vertex -11.4193 5.08421 10
      vertex -12.2268 2.5989 10
    endloop
  endfacet
  facet normal 0.951056 -0.309017 0
    outer loop
      vertex -12.2268 2.5989 0
      vertex -11.4193 5.08421 0
      vertex -12.2268 2.5989 10
    endloop
  endfacet
  facet normal 0.866025 -0.5 0
    outer loop
      vertex -10.1127 7.34732 0
      vertex -10.1127 7.34732 10
      vertex -11.4193 5.08421 10
    endloop
  endfacet
  facet normal 0.866025 -0.5 0
    outer loop
      vertex -11.4193 5.08421 0
      vertex -10.1127 7.34732 0
      vertex -11.4193 5.08421 10
    endloop
  endfacet
  facet normal 0.743145 -0.669131 0
    outer loop
      vertex -8.36413 9.28931 0
      vertex -8.36413 9.28931 10
      vertex -10.1127 7.34732 10
    endloop
  endfacet
  facet normal 0.743145 -0.669131 0
    outer loop
      vertex -10.1127 7.34732 0
      vertex -8.36413 9.28931 0
      vertex -10.1127 7.34732 10
    endloop
  endfacet
  facet normal 0.587785 -0.809017 0
    outer loop
      vertex -6.25 10.8253 0
      vertex -6.25 10.8253 10
      vertex -8.36413 9.28931 10
    endloop
  endfacet
  facet normal 0.587785 -0.809017 0
    outer loop
      vertex -8.36413 9.28931 0
      vertex -6.25 10.8253 0
      vertex -8.36413 9.28931 10
    endloop
  endfacet
  facet normal 0.406736 -0.913546 0
    outer loop
      vertex -3.86271 11.8882 0
      vertex -3.86271 11.8882 10
      vertex -6.25 10.8253 10
    endloop
  endfacet
  facet normal 0.406736 -0.913546 0
    outer loop
      vertex -6.25 10.8253 0
      vertex -3.86271 11.8882 0
      vertex -6.25 10.8253 10
    endloop
  endfacet
  facet normal 0.207912 -0.978148 0
    outer loop
      vertex -1.30661 12.4315 0
      vertex -1.30661 12.4315 10
      vertex -3.86271 11.8882 10
    endloop
  endfacet
  facet normal 0.207912 -0.978148 0
    outer loop
      vertex -3.86271 11.8882 0
      vertex -1.30661 12.4315 0
      vertex -3.86271 11.8882 10
    endloop
  endfacet
  facet normal 0 -1 0
    outer loop
      vertex 1.30661 12.4315 0
      vertex 1.30661 12.4315 10
      vertex -1.30661 12.4315 10
    endloop
  endfacet
  facet normal 0 -1 0
    outer loop
      vertex -1.30661 12.4315 0
      vertex 1.30661 12.4315 0
      vertex -1.30661 12.4315 10
    endloop
  endfacet
  facet normal -0.207912 -0.978148 0
    outer loop
      vertex 3.86271 11.8882 0
      vertex 3.86271 11.8882 10
      vertex 1.30661 12.4315 10
    endloop
  endfacet
  facet normal -0.207912 -0.978148 0
    outer loop
      vertex 1.30661 12.4315 0
      vertex 3.86271 11.8882 0
      vertex 1.30661 12.4315 10
    endloop
  endfacet
  facet normal -0.406736 -0.913546 0
    outer loop
      vertex 6.25 10.8253 0
      vertex 6.25 10.8253 10
      vertex 3.86271 11.8882 10
    endloop
  endfacet
  facet normal -0.406736 -0.913546 0
    outer loop
      vertex 3.86271 11.8882 0
      vertex 6.25 10.8253 0
      vertex 3.86271 11.8882 10
    endloop
  endfacet
  facet normal -0.587785 -0.809017 0
    outer loop
      vertex 8.36413 9.28931 0
      vertex 8.36413 9.28931 10
      vertex 6.25 10.8253 10
    endloop
  endfacet
  facet normal -0.587785 -0.809017 0
    outer loop
      vertex 6.25 10.8253 0
      vertex 8.36413 9.28931 0
      vertex 6.25 10.8253 10
    endloop
  endfacet
  facet normal -0.743145 -0.669131 0
    outer loop
      vertex 10.1127 7.34732 10
      vertex 8.36413 9.28931 10
      vertex 10.1127 7.34732 0
    endloop
  endfacet
  facet normal -0.743145 -0.669131 0
    outer loop
      vertex 10.1127 7.34732 0
      vertex 8.36413 9.28931 10
      vertex 8.36413 9.28931 0
    endloop
  endfacet
  facet normal -0.866025 -0.5 0
    outer loop
      vertex 11.4193 5.08421 10
      vertex 10.1127 7.34732 10
      vertex 11.4193 5.08421 0
    endloop
  endfacet
  facet normal -0.866025 -0.5 0
    outer loop
      vertex 11.4193 5.08421 0
      vertex 10.1127 7.34732 10
      vertex 10.1127 7.34732 0
    endloop
  endfacet
  facet normal -0.951056 -0.309017 0
    outer loop
      vertex 12.2268 2.5989 10
      vertex 11.4193 5.08421 10
      vertex 12.2268 2.5989 0
    endloop
  endfacet
  facet normal -0.951056 -0.309017 0
    outer loop
      vertex 12.2268 2.5989 0
      vertex 11.4193 5.08421 10
      vertex 11.4193 5.08421 0
    endloop
  endfacet
  facet normal -0.994522 -0.104528 0
    outer loop
      vertex 12.5 0 10
      vertex 12.2268 2.5989 10
      vertex 12.5 0 0
    endloop
  endfacet
  facet normal -0.994522 -0.104528 0
    outer loop
      vertex 12.5 0 0
      vertex 12.2268 2.5989 10
      vertex 12.2268 2.5989 0
    endloop
  endfacet
  facet normal -0.994522 0.104528 0
    outer loop
      vertex 12.5 0 10
      vertex 12.5 0 0
      vertex 12.2268 -2.5989 10
    endloop
  endfacet
  facet normal -0.994522 0.104528 0
    outer loop
      vertex 12.2268 -2.5989 10
      vertex 12.5 0 0
      vertex 12.2268 -2.5989 0
    endloop
  endfacet
  facet normal -0.951056 0.309017 0
    outer loop
      vertex 12.2268 -2.5989 10
      vertex 12.2268 -2.5989 0
      vertex 11.4193 -5.08421 10
    endloop
  endfacet
  facet normal -0.951056 0.309017 0
    outer loop
      vertex 11.4193 -5.08421 10
      vertex 12.2268 -2.5989 0
      vertex 11.4193 -5.08421 0
    endloop
  endfacet
  facet normal -0.866025 0.5 0
    outer loop
      vertex 11.4193 -5.08421 10
      vertex 11.4193 -5.08421 0
      vertex 10.1127 -7.34732 10
    endloop
  endfacet
  facet normal -0.866025 0.5 0
    outer loop
      vertex 10.1127 -7.34732 10
      vertex 11.4193 -5.08421 0
      vertex 10.1127 -7.34732 0
    endloop
  endfacet
  facet normal -0.743145 0.669131 0
    outer loop
      vertex 10.1127 -7.34732 10
      vertex 10.1127 -7.34732 0
      vertex 8.36413 -9.28931 10
    endloop
  endfacet
  facet normal -0.743145 0.669131 0
    outer loop
      vertex 8.36413 -9.28931 10
      vertex 10.1127 -7.34732 0
      vertex 8.36413 -9.28931 0
    endloop
  endfacet
  facet normal -0.587785 0.809017 0
    outer loop
      vertex 8.36413 -9.28931 10
      vertex 8.36413 -9.28931 0
      vertex 6.25 -10.8253 10
    endloop
  endfacet
  facet normal -0.587785 0.809017 0
    outer loop
      vertex 6.25 -10.8253 10
      vertex 8.36413 -9.28931 0
      vertex 6.25 -10.8253 0
    endloop
  endfacet
  facet normal -0.406736 0.913546 0
    outer loop
      vertex 6.25 -10.8253 10
      vertex 6.25 -10.8253 0
      vertex 3.86271 -11.8882 10
    endloop
  endfacet
  facet normal -0.406736 0.913546 0
    outer loop
      vertex 3.86271 -11.8882 10
      vertex 6.25 -10.8253 0
      vertex 3.86271 -11.8882 0
    endloop
  endfacet
  facet normal -0.207912 0.978148 0
    outer loop
      vertex 3.86271 -11.8882 10
      vertex 3.86271 -11.8882 0
      vertex 1.30661 -12.4315 10
    endloop
  endfacet
  facet normal -0.207912 0.978148 0
    outer loop
      vertex 1.30661 -12.4315 10
      vertex 3.86271 -11.8882 0
      vertex 1.30661 -12.4315 0
    endloop
  endfacet
  facet normal 0 1 0
    outer loop
      vertex 1.30661 -12.4315 10
      vertex 1.30661 -12.4315 0
      vertex -1.30661 -12.4315 10
    endloop
  endfacet
  facet normal 0 1 0
    outer loop
      vertex -1.30661 -12.4315 10
      vertex 1.30661 -12.4315 0
      vertex -1.30661 -12.4315 0
    endloop
  endfacet
  facet normal 0.207912 0.978148 0
    outer loop
      vertex -1.30661 -12.4315 10
      vertex -1.30661 -12.4315 0
      vertex -3.86271 -11.8882 10
    endloop
  endfacet
  facet normal 0.207912 0.978148 0
    outer loop
      vertex -3.86271 -11.8882 10
      vertex -1.30661 -12.4315 0
      vertex -3.86271 -11.8882 0
    endloop
  endfacet
  facet normal 0.406736 0.913546 0
    outer loop
      vertex -3.86271 -11.8882 10
      vertex -3.86271 -11.8882 0
      vertex -6.25 -10.8253 10
    endloop
  endfacet
  facet normal 0.406736 0.913546 0
    outer loop
      vertex -6.25 -10.8253 10
      vertex -3.86271 -11.8882 0
      vertex -6.25 -10.8253 0
    endloop
  endfacet
  facet normal 0.587785 0.809017 0
    outer loop
      vertex -6.25 -10.8253 10
      vertex -6.25 -10.8253 0
      vertex -8.36413 -9.28931 10
    endloop
  endfacet
  facet normal 0.587785 0.809017 0
    outer loop
      vertex -8.36413 -9.28931 10
      vertex -6.25 -10.8253 0
      vertex -8.36413 -9.28931 0
    endloop
  endfacet
  facet normal 0.743145 0.669131 0
    outer loop
      vertex -10.1127 -7.34732 10
      vertex -8.36413 -9.28931 10
      vertex -8.36413 -9.28931 0
    endloop
  endfacet
  facet normal 0.743145 0.669131 0
    outer loop
      vertex -10.1127 -7.34732 0
      vertex -10.1127 -7.34732 10
      vertex -8.36413 -9.28931 0
    endloop
  endfacet
  facet normal 0.866025 0.5 0
    outer loop
      vertex -11.4193 -5.08421 10
      vertex -10.1127 -7.34732 10
      vertex -10.1127 -7.34732 0
    endloop
  endfacet
  facet normal 0.866025 0.5 0
    outer loop
      vertex -11.4193 -5.08421 0
      vertex -11.4193 -5.08421 10
      vertex -10.1127 -7.34732 0
    endloop
  endfacet
  facet normal 0.951056 0.309017 0
    outer loop
      vertex -12.2268 -2.5989 10
      vertex -11.4193 -5.08421 10
      vertex -11.4193 -5.08421 0
    endloop
  endfacet
  facet normal 0.951056 0.309017 0
    outer loop
      vertex -12.2268 -2.5989 0
      vertex -12.2268 -2.5989 10
      vertex -11.4193 -5.08421 0
    endloop
  endfacet
  facet normal 0 0 1
    outer loop
      vertex -48.9074 10.3956 10
      vertex -50 0 10
      vertex -48.9074 -10.3956 10
    endloop
  endfacet
  facet normal 0 0 1
    outer loop
      vertex -40.4508 -29.3893 10
      vertex -48.9074 10.3956 10
      vertex -45.6773 -20.3368 10
    endloop
  endfacet
  facet normal 0 0 1
    outer loop
      vertex -45.6773 -20.3368 10
      vertex -48.9074 10.3956 10
      vertex -48.9074 -10.3956 10
    endloop
  endfacet
  facet normal 0 0 1
    outer loop
      vertex -33.4565 -37.1572 10
      vertex -48.9074 10.3956 10
      vertex -40.4508 -29.3893 10
    endloop
  endfacet
  facet normal 0 0 1
    outer loop
      vertex -25 -43.3013 10
      vertex -48.9074 10.3956 10
      vertex -33.4565 -37.1572 10
    endloop
  endfacet
  facet normal 0 0 1
    outer loop
      vertex -15.4508 -47.5528 10
      vertex -48.9074 10.3956 10
      vertex -25 -43.3013 10
    endloop
  endfacet
  facet normal 0 0 1
    outer loop
      vertex -5.22642 -49.7261 10
      vertex -48.9074 10.3956 10
      vertex -15.4508 -47.5528 10
    endloop
  endfacet
  facet normal 0 0 1
    outer loop
      vertex 5.22642 -49.7261 10
      vertex -48.9074 10.3956 10
      vertex -5.22642 -49.7261 10
    endloop
  endfacet
  facet normal 0 0 1
    outer loop
      vertex 15.4508 -47.5528 10
      vertex -48.9074 10.3956 10
      vertex 5.22642 -49.7261 10
    endloop
  endfacet
  facet normal 0 0 1
    outer loop
      vertex 25 -43.3013 10
      vertex -48.9074 10.3956 10
      vertex 15.4508 -47.5528 10
    endloop
  endfacet
  facet normal 0 0 1
    outer loop
      vertex 33.4565 -37.1572 10
      vertex -48.9074 10.3956 10
      vertex 25 -43.3013 10
    endloop
  endfacet
  facet normal 0 0 1
    outer loop
      vertex -6.25 -10.8253 10
      vertex -48.9074 10.3956 10
      vertex 33.4565 -37.1572 10
    endloop
  endfacet
  facet normal 0 0 1
    outer loop
      vertex -6.25 -10.8253 10
      vertex -8.36413 -9.28931 10
      vertex -48.9074 10.3956 10
    endloop
  endfacet
  facet normal 0 0 1
    outer loop
      vertex 10.1127 -7.34732 10
      vertex 8.36413 -9.28931 10
      vertex 45.6773 -20.3368 10
    endloop
  endfacet
  facet normal 0 0 1
    outer loop
      vertex -11.4193 5.08421 10
      vertex -10.1127 7.34732 10
      vertex -48.9074 10.3956 10
    endloop
  endfacet
  facet normal 0 0 1
    outer loop
      vertex 8.36413 9.28931 10
      vertex 10.1127 7.34732 10
      vertex 48.9074 10.3956 10
    endloop
  endfacet
  facet normal 0 0 1
    outer loop
      vertex 40.4508 29.3893 10
      vertex -48.9074 10.3956 10
      vertex 45.6773 20.3368 10
    endloop
  endfacet
  facet normal 0 0 1
    outer loop
      vertex 33.4565 37.1572 10
      vertex -48.9074 10.3956 10
      vertex 40.4508 29.3893 10
    endloop
  endfacet
  facet normal 0 0 1
    outer loop
      vertex 25 43.3013 10
      vertex -48.9074 10.3956 10
      vertex 33.4565 37.1572 10
    endloop
  endfacet
  facet normal 0 0 1
    outer loop
      vertex 15.4508 47.5528 10
      vertex -48.9074 10.3956 10
      vertex 25 43.3013 10
    endloop
  endfacet
  facet normal 0 0 1
    outer loop
      vertex 5.22642 49.7261 10
      vertex -48.9074 10.3956 10
      vertex 15.4508 47.5528 10
    endloop
  endfacet
  facet normal 0 0 1
    outer loop
      vertex -5.22642 49.7261 10
      vertex -48.9074 10.3956 10
      vertex 5.22642 49.7261 10
    endloop
  endfacet
  facet normal 0 0 1
    outer loop
      vertex -15.4508 47.5528 10
      vertex -48.9074 10.3956 10
      vertex -5.22642 49.7261 10
    endloop
  endfacet
  facet normal 0 0 1
    outer loop
      vertex -25 43.3013 10
      vertex -48.9074 10.3956 10
      vertex -15.4508 47.5528 10
    endloop
  endfacet
  facet normal 0 0 1
    outer loop
      vertex -33.4565 37.1572 10
      vertex -48.9074 10.3956 10
      vertex -25 43.3013 10
    endloop
  endfacet
  facet normal 0 0 1
    outer loop
      vertex -40.4508 29.3893 10
      vertex -48.9074 10.3956 10
      vertex -33.4565 37.1572 10
    endloop
  endfacet
  facet normal 0 0 1
    outer loop
      vertex -45.6773 20.3368 10
      vertex -48.9074 10.3956 10
      vertex -40.4508 29.3893 10
    endloop
  endfacet
  facet normal 0 0 1
    outer loop
      vertex 3.86271 -11.8882 10
      vertex 1.30661 -12.4315 10
      vertex 40.4508 -29.3893 10
    endloop
  endfacet
  facet normal 0 0 1
    outer loop
      vertex -10.1127 -7.34732 10
      vertex -11.4193 -5.08421 10
      vertex -48.9074 10.3956 10
    endloop
  endfacet
  facet normal 0 0 1
    outer loop
      vertex -12.2268 2.5989 10
      vertex -48.9074 10.3956 10
      vertex -12.5 0 10
    endloop
  endfacet
  facet normal 0 0 1
    outer loop
      vertex 6.25 10.8253 10
      vertex 8.36413 9.28931 10
      vertex 48.9074 10.3956 10
    endloop
  endfacet
  facet normal 0 0 1
    outer loop
      vertex -8.36413 9.28931 10
      vertex -6.25 10.8253 10
      vertex -48.9074 10.3956 10
    endloop
  endfacet
  facet normal 0 0 1
    outer loop
      vertex 12.2268 -2.5989 10
      vertex 11.4193 -5.08421 10
      vertex 48.9074 -10.3956 10
    endloop
  endfacet
  facet normal 0 0 1
    outer loop
      vertex -8.36413 9.28931 10
      vertex -48.9074 10.3956 10
      vertex -10.1127 7.34732 10
    endloop
  endfacet
  facet normal 0 0 1
    outer loop
      vertex -1.30661 12.4315 10
      vertex 1.30661 12.4315 10
      vertex 45.6773 20.3368 10
    endloop
  endfacet
  facet normal 0 0 1
    outer loop
      vertex 11.4193 5.08421 10
      vertex 12.2268 2.5989 10
      vertex 50 0 10
    endloop
  endfacet
  facet normal 0 0 1
    outer loop
      vertex -3.86271 11.8882 10
      vertex -48.9074 10.3956 10
      vertex -6.25 10.8253 10
    endloop
  endfacet
  facet normal 0 0 1
    outer loop
      vertex -1.30661 12.4315 10
      vertex -48.9074 10.3956 10
      vertex -3.86271 11.8882 10
    endloop
  endfacet
  facet normal 0 0 1
    outer loop
      vertex 1.30661 12.4315 10
      vertex 3.86271 11.8882 10
      vertex 45.6773 20.3368 10
    endloop
  endfacet
  facet normal 0 0 1
    outer loop
      vertex 45.6773 20.3368 10
      vertex -48.9074 10.3956 10
      vertex -1.30661 12.4315 10
    endloop
  endfacet
  facet normal 0 0 1
    outer loop
      vertex 45.6773 20.3368 10
      vertex 3.86271 11.8882 10
      vertex 48.9074 10.3956 10
    endloop
  endfacet
  facet normal 0 0 1
    outer loop
      vertex 3.86271 11.8882 10
      vertex 6.25 10.8253 10
      vertex 48.9074 10.3956 10
    endloop
  endfacet
  facet normal 0 0 1
    outer loop
      vertex 48.9074 10.3956 10
      vertex 10.1127 7.34732 10
      vertex 50 0 10
    endloop
  endfacet
  facet normal 0 0 1
    outer loop
      vertex 10.1127 7.34732 10
      vertex 11.4193 5.08421 10
      vertex 50 0 10
    endloop
  endfacet
  facet normal 0 0 1
    outer loop
      vertex 50 0 10
      vertex 12.2268 2.5989 10
      vertex 48.9074 -10.3956 10
    endloop
  endfacet
  facet normal 0 0 1
    outer loop
      vertex 12.2268 2.5989 10
      vertex 12.5 0 10
      vertex 48.9074 -10.3956 10
    endloop
  endfacet
  facet normal 0 0 1
    outer loop
      vertex 12.5 0 10
      vertex 12.2268 -2.5989 10
      vertex 48.9074 -10.3956 10
    endloop
  endfacet
  facet normal 0 0 1
    outer loop
      vertex 48.9074 -10.3956 10
      vertex 11.4193 -5.08421 10
      vertex 45.6773 -20.3368 10
    endloop
  endfacet
  facet normal 0 0 1
    outer loop
      vertex 11.4193 -5.08421 10
      vertex 10.1127 -7.34732 10
      vertex 45.6773 -20.3368 10
    endloop
  endfacet
  facet normal 0 0 1
    outer loop
      vertex 45.6773 -20.3368 10
      vertex 8.36413 -9.28931 10
      vertex 40.4508 -29.3893 10
    endloop
  endfacet
  facet normal 0 0 1
    outer loop
      vertex 8.36413 -9.28931 10
      vertex 6.25 -10.8253 10
      vertex 40.4508 -29.3893 10
    endloop
  endfacet
  facet normal 0 0 1
    outer loop
      vertex 40.4508 -29.3893 10
      vertex 1.30661 -12.4315 10
      vertex 33.4565 -37.1572 10
    endloop
  endfacet
  facet normal 0 0 1
    outer loop
      vertex 1.30661 -12.4315 10
      vertex -1.30661 -12.4315 10
      vertex 33.4565 -37.1572 10
    endloop
  endfacet
  facet normal 0 0 1
    outer loop
      vertex -1.30661 -12.4315 10
      vertex -3.86271 -11.8882 10
      vertex 33.4565 -37.1572 10
    endloop
  endfacet
  facet normal 0 0 1
    outer loop
      vertex -3.86271 -11.8882 10
      vertex -6.25 -10.8253 10
      vertex 33.4565 -37.1572 10
    endloop
  endfacet
  facet normal 0 0 1
    outer loop
      vertex -8.36413 -9.28931 10
      vertex -10.1127 -7.34732 10
      vertex -48.9074 10.3956 10
    endloop
  endfacet
  facet normal 0 0 1
    outer loop
      vertex -12.2268 -2.5989 10
      vertex -48.9074 10.3956 10
      vertex -11.4193 -5.08421 10
    endloop
  endfacet
  facet normal 0 0 1
    outer loop
      vertex 6.25 -10.8253 10
      vertex 3.86271 -11.8882 10
      vertex 40.4508 -29.3893 10
    endloop
  endfacet
  facet normal 0 0 1
    outer loop
      vertex -12.2268 -2.5989 10
      vertex -12.5 0 10
      vertex -48.9074 10.3956 10
    endloop
  endfacet
  facet normal 0 0 1
    outer loop
      vertex -12.2268 2.5989 10
      vertex -11.4193 5.08421 10
      vertex -48.9074 10.3956 10
    endloop
  endfacet
endsolid OpenSCAD_Model
